<svg width="43" height="27" viewBox="0 0 43 27" fill="none" xmlns="http://www.w3.org/2000/svg">
<path d="M30.072 0.793946C26.777 0.794824 23.7734 2.03957 21.5098 4.084C19.2444 2.0422 16.2426 0.796579 12.951 0.796579C12.9237 0.796579 12.8956 0.796579 12.8691 0.796579C5.85972 0.842226 0.183838 6.52521 0.183838 13.5205C0.183838 20.5439 5.90376 26.2436 12.9502 26.2436C16.2417 26.2436 19.2435 24.9997 21.508 22.9562C21.035 22.5304 20.607 22.059 20.2027 21.5657H22.8389C22.4417 22.0511 22.0083 22.5058 21.5424 22.9289H21.5406C21.53 22.9404 21.5186 22.9474 21.508 22.957C23.7743 25.0024 26.7796 26.2489 30.0764 26.248C37.1273 26.2453 42.841 20.5466 42.8392 13.5205C42.8392 13.5179 42.8392 13.5161 42.8392 13.5144C42.8401 6.48834 37.1229 0.79219 30.072 0.793946ZM20.3489 5.39809H22.7755C23.1331 5.82998 23.4652 6.28468 23.7664 6.76046H19.4373C19.7165 6.30575 20.023 5.83788 20.3489 5.39809ZM18.6833 8.0965H24.5027C24.7097 8.53716 24.8929 8.99275 25.0532 9.45974H17.9936C18.0641 9.32807 18.3107 8.79787 18.6833 8.0965ZM5.39553 16.7614L6.16976 11.8966L4.42313 16.7614H3.48684L3.36529 11.8966L2.53822 16.7614H1.22671L2.31361 10.3095H4.29718L4.36676 14.2684L5.70646 10.3095H7.85825L6.78632 16.7614H5.39553ZM10.0329 16.7509L10.0779 16.2356C10.0567 16.2382 9.64275 16.858 8.68356 16.858C8.18151 16.858 7.37117 16.585 7.37117 15.3982C7.37117 13.8892 8.60605 13.3888 9.78192 13.3888C9.96689 13.3888 10.3659 13.4222 10.3659 13.4222C10.3659 13.4222 10.4108 13.33 10.4108 13.0807C10.4108 12.6708 10.0409 12.6146 9.53442 12.6146C8.64217 12.6146 8.05291 12.8525 8.05291 12.8525L8.25021 11.685C8.25021 11.685 8.96542 11.3866 9.89643 11.3866C10.3782 11.3866 11.7637 11.4375 11.7637 13.0202L11.23 16.7509H10.0329ZM15.0914 15.1076C15.0914 16.908 13.3412 16.8308 13.0356 16.8308C11.895 16.8308 11.5426 16.6736 11.5101 16.6649L11.6915 15.4798C11.6933 15.4693 12.264 15.6861 12.8991 15.6861C13.2655 15.6861 13.7411 15.6501 13.7411 15.2138C13.7411 14.5607 12.0394 14.717 12.0394 13.1659C12.0394 11.7974 13.0594 11.3971 14.0653 11.3971C14.8421 11.3971 15.3195 11.5033 15.3195 11.5033L15.1478 12.6989C15.1478 12.6989 14.4105 12.6383 14.2194 12.6383C13.7358 12.6383 13.4725 12.7437 13.4725 13.0807C13.4716 13.7584 15.0914 13.4266 15.0914 15.1076ZM17.193 15.5799C17.3136 15.5799 17.4502 15.5386 17.5435 15.5386L17.3735 16.6894C17.237 16.7272 16.8503 16.8641 16.3545 16.8676C15.7212 16.8729 15.2711 16.52 15.2711 15.7194C15.2711 15.1822 16.0435 10.7554 16.0735 10.7264H17.4326L17.2943 11.5182H17.9725L17.799 12.7937H17.0794L16.6971 15.1436C16.668 15.3306 16.72 15.5799 17.193 15.5799ZM20.1824 11.369C21.6745 11.369 22.1211 12.4575 22.1211 13.3502C22.1211 13.7075 21.9414 14.5853 21.9414 14.5853H19.1792C19.1792 14.5853 18.9238 15.6694 20.3832 15.6694C21.0676 15.6694 21.8269 15.3358 21.8269 15.3358L21.5873 16.6412C21.5873 16.6412 21.1487 16.8641 20.1516 16.8641C19.0708 16.8641 17.8034 16.4085 17.8034 14.4949C17.8043 12.8367 18.8154 11.369 20.1824 11.369ZM23.7822 20.2551H19.2532C18.9775 19.8162 18.7203 19.3659 18.4992 18.8928H24.5265C24.3046 19.3633 24.0562 19.818 23.7822 20.2551ZM23.4784 16.7711H22.0832L22.9314 11.52H24.1971L24.0756 12.281C24.0756 12.281 24.5265 11.4533 25.1352 11.4533C25.3122 11.4533 25.3976 11.4708 25.3976 11.4708C25.2171 11.8377 25.0576 12.174 24.8921 13.0421C23.9478 12.7085 23.8756 14.5283 23.4784 16.7711ZM28.794 16.6894C28.794 16.6894 28.0629 16.8755 27.6049 16.8755C25.9825 16.8755 25.1589 15.7598 25.1589 14.07C25.1589 11.5217 26.6854 10.1646 28.2541 10.1646C28.9631 10.1646 29.7849 10.4964 29.7849 10.4964L29.5629 11.9317C29.5629 11.9317 29.0072 11.5446 28.3157 11.5446C27.3909 11.5446 26.5612 12.4241 26.5612 14.0226C26.5612 14.81 26.9478 15.5439 27.9132 15.5439C28.3721 15.5439 29.0371 15.2112 29.0371 15.2112L28.794 16.6894ZM32.0662 16.7535L32.112 16.2347C32.09 16.2374 31.676 16.8571 30.7177 16.8571C30.2156 16.8571 29.4053 16.5841 29.4053 15.3973C29.4053 13.8883 30.6402 13.388 31.8151 13.388C32.0001 13.388 32.4 13.4213 32.4 13.4213C32.4 13.4213 32.4458 13.33 32.4458 13.0807C32.4458 12.6708 32.0759 12.6146 31.5685 12.6146C30.6763 12.6146 30.0879 12.8525 30.0879 12.8525L30.2852 11.685C30.2852 11.685 31.0004 11.3866 31.9323 11.3866C32.4132 11.3866 33.7996 11.4375 33.7987 13.0202L33.2649 16.7509C33.2641 16.7535 32.0662 16.7535 32.0662 16.7535ZM34.8909 16.7711H33.4957L34.3439 11.52H35.6105L35.489 12.281C35.489 12.281 35.9408 11.4533 36.5494 11.4533C36.7265 11.4533 36.811 11.4708 36.811 11.4708C36.6314 11.8377 36.4702 12.174 36.3055 13.0421C35.3604 12.7085 35.2881 14.5283 34.8909 16.7711ZM39.0562 16.757L39.1152 16.2734C39.1152 16.2734 38.6643 16.8404 37.8486 16.8404C36.7186 16.8404 36.1645 15.7528 36.1645 14.6415C36.1645 12.9227 37.2021 11.4243 38.4476 11.4243C39.2491 11.4261 39.7608 12.1309 39.7608 12.1309L40.055 10.3182L41.4176 10.3156L40.3783 16.757H39.0562V16.757ZM41.7444 16.5753C41.7083 16.6403 41.6572 16.6903 41.592 16.7289C41.5277 16.7649 41.459 16.7834 41.3868 16.7834C41.3163 16.7834 41.2485 16.7649 41.1833 16.7289C41.1182 16.6903 41.0671 16.6403 41.031 16.5753C40.994 16.5095 40.9764 16.4428 40.9764 16.3717C40.9764 16.2997 40.9949 16.2312 41.031 16.1663C41.0671 16.1013 41.1208 16.0486 41.1851 16.0135C41.252 15.9775 41.3181 15.9591 41.3868 15.9591C41.4573 15.9591 41.5242 15.9775 41.5894 16.0135C41.6563 16.0495 41.7074 16.0995 41.7444 16.1663C41.7823 16.2321 41.799 16.3006 41.799 16.3717C41.799 16.4428 41.7814 16.5104 41.7444 16.5753Z" fill="white"/>
</svg>
