<svg width="81" height="21" viewBox="0 0 81 21" fill="none" xmlns="http://www.w3.org/2000/svg">
<g clip-path="url(#clip0_10_1278)">
<path fill-rule="evenodd" clip-rule="evenodd" d="M0.88855 0.322835H8.18463C8.76092 0.320619 9.32898 0.448731 9.8388 0.695861C10.3486 0.942992 10.7846 1.30158 11.1083 1.74008C11.6167 2.53251 11.9815 3.39573 12.1883 4.29593C13.0707 7.02138 13.9399 9.75895 14.8222 12.4844C14.8222 12.7388 15.2305 12.8235 15.3095 12.5692C16.2182 9.80737 17.0875 7.0456 17.9435 4.29593C18.1678 3.28587 18.6161 2.3292 19.2605 1.48568C19.7302 0.972534 20.36 0.604636 21.0647 0.431849C21.6672 0.322838 22.2826 0.286197 22.8954 0.322835C25.0289 0.322835 27.1756 0.322835 29.3091 0.322835C29.3091 7.17885 29.3091 14.0349 29.3091 20.9151C26.9912 20.9151 24.6864 20.9151 22.3817 20.9151C22.3817 16.8936 22.3817 12.8841 22.3817 8.86256C22.3817 8.49916 21.7232 8.5355 21.6837 8.86256C20.3053 12.9003 18.9312 16.9178 17.5616 20.9151C15.9285 20.9151 14.2955 20.9151 12.6624 20.9151C11.3454 16.9057 9.93623 12.8841 8.54022 8.87468C8.54022 8.53551 8.05295 8.53552 7.82906 8.72933V20.9151C5.52434 20.9151 3.21962 20.9151 0.914895 20.9151V0.322835H0.88855ZM32.4962 0.322835C34.8141 0.322835 37.1188 0.322835 39.4235 0.322835C39.4235 4.39284 39.4235 8.46282 39.4235 12.5328C39.621 12.6903 39.9898 12.7387 40.1083 12.5328C41.636 9.57723 43.1681 6.61356 44.7046 3.64181C45.1055 2.68151 45.6701 1.78604 46.3772 0.989041C46.7137 0.638931 47.1871 0.425555 47.6942 0.395511C50.0384 0.395511 52.3958 0.395511 54.74 0.395511C54.74 7.25152 54.74 14.1156 54.74 20.9878H47.8259C47.8259 16.9501 47.8259 12.8922 47.8259 8.81413C47.8259 8.46285 47.1805 8.48708 47.1147 8.81413C45.666 11.7455 44.2305 14.689 42.7818 17.6203C42.3833 18.5359 41.8707 19.4058 41.2541 20.2126C41.084 20.4482 40.8558 20.6434 40.588 20.7823C40.3202 20.9213 40.0204 21 39.7132 21.012H32.5093C32.5093 14.1641 32.5093 7.29996 32.5093 0.419724L32.4962 0.322835ZM58.1247 9.71049C65.3813 9.71049 72.6115 9.71049 79.8812 9.71049C79.581 10.6261 79.038 11.4586 78.3009 12.1331C77.6281 12.8073 76.8153 13.3507 75.9106 13.7314C75.0059 14.1121 74.0274 14.3224 73.033 14.3498H65.1311C65.1311 16.5423 65.1311 18.7348 65.1311 20.9272H58.0983C58.0852 17.1116 58.1115 13.3929 58.0852 9.66202L58.1247 9.71049Z" fill="white"/>
<path fill-rule="evenodd" clip-rule="evenodd" d="M57.2157 0.322754H73.5068C74.9473 0.424948 76.3224 0.918215 77.4577 1.74C78.2738 2.32473 78.9524 3.05558 79.4527 3.88837C79.953 4.72116 80.2644 5.6386 80.3683 6.58524C80.4143 7.26835 80.3879 7.95394 80.2892 8.63232C76.9704 8.63232 73.7043 8.63232 70.3328 8.63232C69.1942 8.66503 68.0544 8.62458 66.9219 8.51122C64.3305 8.25966 61.9077 7.20948 60.0472 5.53137C58.5247 4.11661 57.5327 2.2919 57.2157 0.322754Z" fill="white"/>
</g>
<defs>
<clipPath id="clip0_10_1278">
<rect width="79.4273" height="20.5923" fill="white" transform="translate(0.887939 0.249756)"/>
</clipPath>
</defs>
</svg>
