<svg width="57" height="57" viewBox="0 0 57 57" fill="none" xmlns="http://www.w3.org/2000/svg">
<path d="M28.2461 44.4297C27.9492 44.8008 27.3555 44.8008 26.9844 44.4297L11.4727 28.918C11.1016 28.5469 11.1016 28.0273 11.4727 27.6562L26.9844 12.1445C27.3555 11.7734 27.9492 11.7734 28.2461 12.1445L29.7305 13.5547C30.1016 13.9258 30.1016 14.5195 29.7305 14.8164L18.2266 26.3203H43.6094C44.0547 26.3203 44.5 26.7656 44.5 27.2109V29.2891C44.5 29.8086 44.0547 30.1797 43.6094 30.1797H18.2266L29.7305 41.7578C30.1016 42.0547 30.1016 42.6484 29.7305 43.0195L28.2461 44.4297Z" fill="white"/>
</svg>
