<svg width="35" height="35" viewBox="0 0 35 35" fill="none" xmlns="http://www.w3.org/2000/svg">
<path d="M16.9144 6.875C11.2633 6.875 6.70605 11.4778 6.70605 17.0833C6.70605 22.7344 11.2633 27.2916 16.9144 27.2916C22.5198 27.2916 27.1227 22.7344 27.1227 17.0833C27.1227 11.4778 22.5198 6.875 16.9144 6.875ZM16.9144 25.1041C12.4482 25.1041 8.89356 21.5495 8.89356 17.0833C8.89356 12.6627 12.4482 9.0625 16.9144 9.0625C21.3349 9.0625 24.9352 12.6627 24.9352 17.0833C24.9352 21.5495 21.3349 25.1041 16.9144 25.1041ZM16.9144 20C16.094 20 15.456 20.6836 15.456 21.4583C15.456 22.2786 16.094 22.9166 16.9144 22.9166C17.6891 22.9166 18.3727 22.2786 18.3727 21.4583C18.3727 20.6836 17.6891 20 16.9144 20ZM17.917 11.25H15.8662C15.456 11.25 15.0914 11.6601 15.137 12.0703L15.7295 17.9036C15.775 18.2682 16.094 18.5416 16.4586 18.5416H17.3245C17.6891 18.5416 18.0081 18.2682 18.0537 17.9036L18.6461 12.0703C18.6917 11.6601 18.3271 11.25 17.917 11.25ZM4.51855 17.0833C4.51855 14.3945 5.38443 11.7513 7.02506 9.60937C7.25292 9.29036 7.20735 8.88021 6.93391 8.60677L6.38704 8.15104C6.06803 7.8776 5.56673 7.92318 5.29329 8.24219C3.37923 10.7943 2.33105 13.8932 2.33105 17.0833C2.33105 20.319 3.37923 23.4179 5.29329 25.97C5.56673 26.289 6.06803 26.3346 6.38704 26.0612L6.93391 25.6054C7.20735 25.332 7.25292 24.9219 7.02506 24.6028C5.38443 22.4609 4.51855 19.8177 4.51855 17.0833ZM28.3987 8.15104C28.1709 7.83203 27.6696 7.78646 27.3506 8.0599L26.8037 8.5612C26.4847 8.78906 26.4847 9.24479 26.7125 9.5638C28.3987 11.7057 29.3102 14.3489 29.3102 17.0833C29.3102 19.8633 28.3987 22.5065 26.7125 24.6484C26.4847 24.9674 26.4847 25.4232 26.8037 25.651L27.3506 26.1523C27.6696 26.4258 28.1709 26.3802 28.3987 26.0612C30.4039 23.5091 31.4977 20.3646 31.4977 17.0833C31.4977 13.8476 30.4039 10.7031 28.3987 8.15104Z" fill="#E03638"/>
</svg>
